<?xml version="1.0" encoding="utf-8"?>
<svg version="1.1" id="Layer_1" xmlns="http://www.w3.org/2000/svg" xmlns:xlink="http://www.w3.org/1999/xlink" x="0px" y="0px"
	 viewBox="687.7 456.3 324.5 88.5" xml:space="preserve">
<style type="text/css">
	.st1{fill:#003E68;}
	.st2{fill:#ED1C24;}
</style>
<g>
	<path class="st1" d="M748.2,524.7h-15.3L713,501.8h-12.4v22.8h-12.9v-68.4c10.8,0,21.7,0.1,32.5,0.1c16.1,0.1,24.6,10.8,24.6,22.6
		c0,9.4-4.3,18.8-17.3,21.5l20.7,23.3V524.7z M700.6,468.4v21.8h19.6c8.2,0,11.7-5.5,11.7-10.9s-3.6-10.9-11.7-10.9H700.6z"/>
	<path class="st1" d="M822.5,472.9c-2.3-3.9-8.8-7.6-16.2-7.6c-9.6,0-14.1,4-14.1,9.1c0,5.9,7,7.6,15.2,8.6
		c14.2,1.8,27.5,5.5,27.5,21.8c0,15.2-13.5,21.8-28.7,21.8c-13.9,0-24.7-4.3-29.7-16.8l10.7-5.6c3,7.5,10.9,10.8,19.2,10.8
		c8.1,0,15.7-2.8,15.7-10.2c0-6.4-6.7-9.1-15.8-10c-13.9-1.7-26.8-5.4-26.8-20.7c0-14,13.8-19.8,26.4-19.9c10.6,0,21.7,3,26.8,13.6
		L822.5,472.9z"/>
	<g>
		<path class="st1" d="M844.7,456.4c0,4.2,0,8.3,0,12.5h51.1v-12.5H844.7z"/>
		<path class="st1" d="M894.4,484.6h-49.7c0,4,0,8,0,12h49.7V484.6z"/>
		<path class="st1" d="M844.7,524.7h51.1V512h-51.1C844.7,516.2,844.7,520.4,844.7,524.7z"/>
	</g>
	<path class="st2" d="M916.8,456.5v26.6c2.8-5,10.7-7.7,15.8-7.7c14,0,24.5,8.6,24.5,25.2c0,15.8-10.6,25.2-24.8,25.2
		c-5.9,0-11.8-2-15.5-7.7l-0.8,6.6h-11.1v-68.2H916.8z M917.5,500.6c0,8.7,6.4,14.1,13.9,14.1c7.6,0,13.7-5.8,13.7-14.1
		c0-8.7-6-14-13.7-14C924,486.5,917.5,492.2,917.5,500.6z"/>
	<path class="st2" d="M1012.2,476.6l-29.4,68.2h-13.1l9-20.9l-19.2-47.3h13.8l7.3,20.8l4.6,13.6l5-13.3l8.8-21.1H1012.2z"/>
	<g>
		<polygon class="st1" points="766.4,471 766.4,524.7 753.6,524.7 753.6,480.1 		"/>
		<polygon class="st2" points="753.6,471.9 753.6,456.4 766.4,456.4 766.4,462.8 		"/>
	</g>
</g>
</svg>